<svg xmlns="http://www.w3.org/2000/svg" viewBox="0 0 420 190" width="420" height="190"><circle cx="20" cy="50" r="4" fill="#fff" stroke="#334155" stroke-width="2"/><text x="20" y="38" text-anchor="middle" font-size="15" font-family="Segoe UI,sans-serif" fill="#0f172a" font-style="italic">e</text><polyline points="20,50 60,50" stroke="#334155" stroke-width="2" fill="none" stroke-linecap="round" stroke-linejoin="round"/><polyline points="60,50 97,50" stroke="#334155" stroke-width="2" fill="none" stroke-linecap="round" stroke-linejoin="round"/><polyline points="133,50 170,50" stroke="#334155" stroke-width="2" fill="none" stroke-linecap="round" stroke-linejoin="round"/><rect x="97" y="43" width="36" height="14" stroke="#334155" stroke-width="2" fill="none" stroke-linecap="round" stroke-linejoin="round"/><text x="115" y="40" text-anchor="middle" font-size="15" font-family="Segoe UI,sans-serif" fill="#0f172a" font-style="italic">R</text><circle cx="170" cy="50" r="3.5" fill="#334155"/><polyline points="170,50 217,50" stroke="#334155" stroke-width="2" fill="none" stroke-linecap="round" stroke-linejoin="round"/><polyline points="253,50 300,50" stroke="#334155" stroke-width="2" fill="none" stroke-linecap="round" stroke-linejoin="round"/><rect x="217" y="43" width="36" height="14" stroke="#334155" stroke-width="2" fill="none" stroke-linecap="round" stroke-linejoin="round"/><text x="235" y="40" text-anchor="middle" font-size="15" font-family="Segoe UI,sans-serif" fill="#0f172a" font-style="italic">R</text><polyline points="300,50 360,50" stroke="#334155" stroke-width="2" fill="none" stroke-linecap="round" stroke-linejoin="round"/><circle cx="360" cy="50" r="4" fill="#fff" stroke="#334155" stroke-width="2"/><text x="360" y="38" text-anchor="middle" font-size="15" font-family="Segoe UI,sans-serif" fill="#0f172a" font-style="italic">s</text><circle cx="300" cy="50" r="3.5" fill="#334155"/><polyline points="170,50 170,86" stroke="#334155" stroke-width="2" fill="none" stroke-linecap="round" stroke-linejoin="round"/><polyline points="170,94 170,130" stroke="#334155" stroke-width="2" fill="none" stroke-linecap="round" stroke-linejoin="round"/><polyline points="158,86 182,86" stroke="#334155" stroke-width="2" fill="none" stroke-linecap="round" stroke-linejoin="round"/><polyline points="158,94 182,94" stroke="#334155" stroke-width="2" fill="none" stroke-linecap="round" stroke-linejoin="round"/><text x="188" y="95" text-anchor="start" font-size="15" font-family="Segoe UI,sans-serif" fill="#0f172a" font-style="italic">C</text><polyline points="300,50 300,86" stroke="#334155" stroke-width="2" fill="none" stroke-linecap="round" stroke-linejoin="round"/><polyline points="300,94 300,130" stroke="#334155" stroke-width="2" fill="none" stroke-linecap="round" stroke-linejoin="round"/><polyline points="288,86 312,86" stroke="#334155" stroke-width="2" fill="none" stroke-linecap="round" stroke-linejoin="round"/><polyline points="288,94 312,94" stroke="#334155" stroke-width="2" fill="none" stroke-linecap="round" stroke-linejoin="round"/><text x="318" y="95" text-anchor="start" font-size="15" font-family="Segoe UI,sans-serif" fill="#0f172a" font-style="italic">C</text><polyline points="170,130 300,130" stroke="#334155" stroke-width="2" fill="none" stroke-linecap="round" stroke-linejoin="round"/><circle cx="170" cy="130" r="3.5" fill="#334155"/><circle cx="300" cy="130" r="3.5" fill="#334155"/><polyline points="20,130 170,130" stroke="#334155" stroke-width="2" fill="none" stroke-linecap="round" stroke-linejoin="round"/><circle cx="20" cy="130" r="4" fill="#fff" stroke="#334155" stroke-width="2"/><polyline points="300,130 360,130" stroke="#334155" stroke-width="2" fill="none" stroke-linecap="round" stroke-linejoin="round"/><circle cx="360" cy="130" r="4" fill="#fff" stroke="#334155" stroke-width="2"/><polyline points="235,130 235,138" stroke="#334155" stroke-width="2" fill="none" stroke-linecap="round" stroke-linejoin="round"/><polyline points="223,138 247,138" stroke="#334155" stroke-width="2" fill="none" stroke-linecap="round" stroke-linejoin="round"/><polyline points="228,143 242,143" stroke="#334155" stroke-width="2" fill="none" stroke-linecap="round" stroke-linejoin="round"/><polyline points="232,148 238,148" stroke="#334155" stroke-width="2" fill="none" stroke-linecap="round" stroke-linejoin="round"/><circle cx="235" cy="130" r="3.5" fill="#334155"/><text x="170" y="34" text-anchor="middle" font-size="15" font-family="Segoe UI,sans-serif" fill="#0f172a" font-style="italic">A</text></svg>